External Loads File
version=1
nRows=86
nColumns=13
Range=5.000000e-03-10 seconds
endheader
time 	forceRightX 	forceRightY 	forceRightZ 	pointRightX 	pointRightY 	pointRightZ 	forceLeftX 	forceLeftY 	forceLeftZ 	pointLeftX 	pointLeftY 	pointLeftZ 		
0.005000 6.533661 283.848904 -0.000000 0.334180 0.494067 -0.115887 -18.273519 302.581507 -0.000000 0.174888 0.178315 -0.356553
0.010000 6.606426 284.343123 -0.000000 0.334155 0.494084 -0.115894 -18.000697 303.199361 -0.000000 0.174901 0.178314 -0.356551
0.015000 6.704150 284.782586 -0.000000 0.334135 0.494092 -0.115886 -17.730423 303.776780 -0.000000 0.174870 0.178283 -0.356594
0.020000 5.998601 285.133930 -0.000000 0.334116 0.494099 -0.115888 -18.336051 304.240694 -0.000000 0.175131 0.176671 -0.356486
0.025000 6.798302 285.327722 -0.000000 0.334118 0.494147 -0.115921 -17.358735 304.731891 -0.000000 0.174883 0.178221 -0.357169
0.030000 7.425310 285.418342 -0.000000 0.334101 0.494155 -0.115923 -16.615836 305.135244 -0.000000 0.174125 0.178246 -0.357579
0.035000 7.496356 285.443696 -0.000000 0.334091 0.494159 -0.115921 -16.538805 305.422596 -0.000000 0.174155 0.178242 -0.357556
0.040000 7.595680 285.403839 -0.000000 0.334076 0.494165 -0.115929 -16.492544 305.632757 -0.000000 0.174140 0.178232 -0.357572
0.045000 7.652825 285.310879 -0.000000 0.334071 0.494150 -0.115937 -16.517028 305.778233 -0.000000 0.174182 0.178230 -0.357509
0.050000 7.732185 285.176309 -0.000000 0.334068 0.494157 -0.115935 -16.501458 305.882843 -0.000000 0.174141 0.178239 -0.357559
0.055000 7.707400 285.010859 -0.000000 0.334071 0.494155 -0.115936 -16.541460 305.955403 -0.000000 0.174189 0.178247 -0.357499
0.060000 7.707847 284.808748 -0.000000 0.334080 0.494138 -0.115932 -16.467311 306.011117 -0.000000 0.174124 0.178244 -0.357539
0.065000 7.568602 284.568058 -0.000000 0.334100 0.494141 -0.115930 -16.446991 306.033876 -0.000000 0.174176 0.178265 -0.357481
0.070000 7.437865 284.279283 -0.000000 0.334107 0.494142 -0.115928 -16.338244 306.012994 -0.000000 0.174117 0.178266 -0.357526
0.075000 7.243767 283.949536 -0.000000 0.334138 0.494128 -0.115920 -16.251085 305.928325 -0.000000 0.174143 0.178283 -0.357464
0.080000 7.066103 283.597497 -0.000000 0.334153 0.494099 -0.115919 -16.132734 305.788666 -0.000000 0.174121 0.178294 -0.357462
0.085000 6.916788 283.253327 -0.000000 0.334174 0.494102 -0.115919 -15.997833 305.618725 -0.000000 0.174057 0.178298 -0.357513
0.090000 6.739917 282.957555 -0.000000 0.334201 0.494083 -0.115915 -15.935181 305.443767 -0.000000 0.174084 0.178314 -0.357469
0.095000 6.664338 282.749783 -0.000000 0.334221 0.494087 -0.115925 -15.835885 305.290620 -0.000000 0.174013 0.178335 -0.357522
0.100000 6.599469 282.659623 -0.000000 0.334238 0.494068 -0.115931 -15.815989 305.160262 -0.000000 0.173995 0.178325 -0.357524
0.105000 6.604534 282.686031 -0.000000 0.334262 0.494049 -0.115929 -15.808630 305.053417 -0.000000 0.173983 0.178356 -0.357508
0.110000 6.650313 282.802907 -0.000000 0.334284 0.494046 -0.115928 -15.822939 304.967447 -0.000000 0.173963 0.178379 -0.357528
0.115000 6.705213 282.957301 -0.000000 0.334298 0.494034 -0.115933 -15.854193 304.905616 -0.000000 0.173947 0.178371 -0.357525
0.120000 6.772255 283.082694 -0.000000 0.334311 0.494019 -0.115930 -15.858602 304.873809 -0.000000 0.173935 0.178392 -0.357531
0.125000 6.822656 283.139159 -0.000000 0.334315 0.494010 -0.115929 -15.855692 304.864528 -0.000000 0.173917 0.178386 -0.357531
0.130000 6.895865 283.136116 -0.000000 0.334339 0.494005 -0.115937 -15.831285 304.855519 -0.000000 0.173903 0.178395 -0.357527
0.135000 6.970250 283.113128 -0.000000 0.334339 0.493992 -0.115936 -15.846236 304.813186 -0.000000 0.173902 0.178411 -0.357537
0.140000 7.071493 283.102664 -0.000000 0.334339 0.493987 -0.115929 -15.888297 304.719379 -0.000000 0.173880 0.178413 -0.357543
0.145000 7.167127 283.129173 -0.000000 0.334341 0.493987 -0.115934 -15.988006 304.581390 -0.000000 0.173889 0.178413 -0.357535
0.150000 7.301802 283.210873 -0.000000 0.334348 0.493978 -0.115940 -16.086422 304.438452 -0.000000 0.173883 0.178431 -0.357543
0.155000 7.426238 283.353506 -0.000000 0.334342 0.493973 -0.115936 -16.223678 304.327504 -0.000000 0.173887 0.178425 -0.357551
0.160000 7.557093 283.542611 -0.000000 0.334338 0.493974 -0.115930 -16.369302 304.269380 -0.000000 0.173897 0.178422 -0.357547
0.165000 7.706535 283.756153 -0.000000 0.334345 0.493976 -0.115934 -16.491557 304.268515 -0.000000 0.173902 0.178432 -0.357560
0.170000 7.810838 283.972507 -0.000000 0.334335 0.493981 -0.115933 -16.622670 304.318353 -0.000000 0.173922 0.178421 -0.357539
0.175000 7.900145 284.164895 -0.000000 0.334329 0.493981 -0.115940 -16.684655 304.412980 -0.000000 0.173919 0.178415 -0.357550
0.180000 7.926243 284.306711 -0.000000 0.334333 0.493987 -0.115941 -16.697913 304.538544 -0.000000 0.173932 0.178411 -0.357548
0.185000 7.883277 284.375031 -0.000000 0.334329 0.493990 -0.115930 -16.667574 304.679192 -0.000000 0.173941 0.178399 -0.357554
0.190000 7.802640 284.363688 -0.000000 0.334331 0.493990 -0.115942 -16.587920 304.817126 -0.000000 0.173943 0.178409 -0.357554
0.195000 7.670951 284.288770 -0.000000 0.334333 0.493992 -0.115943 -16.515503 304.929428 -0.000000 0.173949 0.178396 -0.357553
0.200000 7.511734 284.169371 -0.000000 0.334328 0.493995 -0.115933 -16.459452 304.993747 -0.000000 0.173956 0.178397 -0.357549
0.205000 7.349194 284.016752 -0.000000 0.334336 0.494010 -0.115939 -16.410304 304.998201 -0.000000 0.173951 0.178391 -0.357566
0.210000 7.180404 283.846087 -0.000000 0.334332 0.494004 -0.115939 -16.380942 304.953968 -0.000000 0.173949 0.178389 -0.357567
0.215000 7.030519 283.679010 -0.000000 0.334344 0.494024 -0.115938 -16.357924 304.893410 -0.000000 0.173952 0.178399 -0.357549
0.220000 6.928442 283.530060 -0.000000 0.334353 0.494020 -0.115931 -16.325689 304.847710 -0.000000 0.173943 0.178388 -0.357559
0.225000 6.864389 283.401928 -0.000000 0.334357 0.494030 -0.115929 -16.303245 304.829455 -0.000000 0.173953 0.178395 -0.357558
0.230000 6.856954 283.286201 -0.000000 0.334360 0.494034 -0.115936 -16.260638 304.842655 -0.000000 0.173952 0.178388 -0.357539
0.235000 6.879566 283.171075 -0.000000 0.334362 0.494039 -0.115938 -16.199493 304.894445 -0.000000 0.173959 0.178384 -0.357541
0.240000 6.938643 283.060776 -0.000000 0.334362 0.494034 -0.115931 -16.088374 305.003697 -0.000000 0.173957 0.178392 -0.357549
0.245000 7.013960 282.988006 -0.000000 0.334362 0.494033 -0.115940 -15.943721 305.180566 -0.000000 0.173955 0.178377 -0.357543
0.250000 7.121758 282.986481 -0.000000 0.334362 0.494040 -0.115937 -15.764225 305.406952 -0.000000 0.173952 0.178379 -0.357546
0.255000 7.245245 283.067100 -0.000000 0.334354 0.494054 -0.115933 -15.597052 305.637012 -0.000000 0.173947 0.178361 -0.357551
0.260000 7.409899 283.220434 -0.000000 0.334340 0.494040 -0.115936 -15.439225 305.834438 -0.000000 0.173944 0.178370 -0.357555
0.265000 7.542343 283.430127 -0.000000 0.334335 0.494062 -0.115938 -15.375311 305.986604 -0.000000 0.173992 0.178356 -0.357494
0.270000 7.748777 283.666886 -0.000000 0.334317 0.494054 -0.115930 -15.277779 306.107127 -0.000000 0.173956 0.178357 -0.357541
0.275000 7.912991 283.901307 -0.000000 0.334304 0.494040 -0.115930 -15.247941 306.191408 -0.000000 0.173952 0.178342 -0.357557
0.280000 8.021118 284.101661 -0.000000 0.334281 0.494059 -0.115927 -15.269870 306.231193 -0.000000 0.173952 0.178353 -0.357553
0.285000 8.038086 284.248501 -0.000000 0.334273 0.494054 -0.115924 -15.353452 306.216256 -0.000000 0.174022 0.178356 -0.357492
0.290000 8.068869 284.338268 -0.000000 0.334254 0.494049 -0.115926 -15.371194 306.150606 -0.000000 0.173973 0.178336 -0.357546
0.295000 8.008248 284.382319 -0.000000 0.334237 0.494065 -0.115920 -15.437011 306.038170 -0.000000 0.173987 0.178327 -0.357541
0.300000 7.931721 284.378654 -0.000000 0.334221 0.494061 -0.115913 -15.482662 305.896479 -0.000000 0.173991 0.178327 -0.357537
0.305000 7.832257 284.324211 -0.000000 0.334202 0.494052 -0.115920 -15.540709 305.731597 -0.000000 0.173997 0.178329 -0.357545
0.310000 7.711042 284.227237 -0.000000 0.334186 0.494056 -0.115915 -15.637725 305.549954 -0.000000 0.174015 0.178318 -0.357536
0.315000 7.610409 284.108592 -0.000000 0.334178 0.494052 -0.115914 -15.740302 305.373944 -0.000000 0.174033 0.178321 -0.357536
0.320000 7.550481 283.996901 -0.000000 0.334171 0.494048 -0.115918 -15.823111 305.230580 -0.000000 0.174026 0.178325 -0.357550
0.325000 7.511818 283.918275 -0.000000 0.334174 0.494054 -0.115916 -15.905697 305.129625 -0.000000 0.174040 0.178316 -0.357553
0.330000 7.523836 283.884355 -0.000000 0.334177 0.494058 -0.115908 -15.956679 305.068915 -0.000000 0.174047 0.178308 -0.357536
0.335000 7.585027 283.892324 -0.000000 0.334183 0.494048 -0.115909 -15.966888 305.046096 -0.000000 0.174052 0.178324 -0.357541
0.340000 7.668881 283.926850 -0.000000 0.334189 0.494047 -0.115911 -15.950160 305.063114 -0.000000 0.174040 0.178332 -0.357550
0.345000 7.754764 283.962790 -0.000000 0.334198 0.494045 -0.115916 -15.920489 305.122767 -0.000000 0.174035 0.178330 -0.357559
0.350000 7.840908 283.969451 -0.000000 0.334217 0.494051 -0.115910 -15.870647 305.224209 -0.000000 0.174033 0.178328 -0.357559
0.355000 7.910813 283.920319 -0.000000 0.334226 0.494041 -0.115910 -15.801768 305.355478 -0.000000 0.174029 0.178346 -0.357552
0.360000 7.944671 283.802838 -0.000000 0.334251 0.494034 -0.115915 -15.719997 305.491693 -0.000000 0.174022 0.178353 -0.357561
0.365000 7.880615 283.619355 -0.000000 0.334277 0.494043 -0.115923 -15.687773 305.599008 -0.000000 0.174054 0.178353 -0.357509
0.370000 7.817580 283.373702 -0.000000 0.334299 0.494028 -0.115917 -15.602805 305.658693 -0.000000 0.174003 0.178359 -0.357565
0.375000 7.650576 283.076854 -0.000000 0.334319 0.494026 -0.115914 -15.587133 305.655181 -0.000000 0.173992 0.178350 -0.357556
0.380000 7.429347 282.741743 -0.000000 0.334328 0.494007 -0.115917 -15.604232 305.595433 -0.000000 0.173991 0.178372 -0.357552
0.385000 7.167993 282.397626 -0.000000 0.334352 0.494012 -0.115919 -15.664371 305.496557 -0.000000 0.173987 0.178373 -0.357545
0.390000 6.896125 282.080666 -0.000000 0.334363 0.494004 -0.115914 -15.759032 305.382804 -0.000000 0.173989 0.178380 -0.357543
0.395000 6.655900 281.810552 -0.000000 0.334378 0.494002 -0.115912 -15.855081 305.270215 -0.000000 0.173980 0.178394 -0.357547
0.400000 6.442214 281.587402 -0.000000 0.334389 0.494010 -0.115906 -15.961535 305.151131 -0.000000 0.173968 0.178394 -0.357554
0.405000 6.267105 281.408849 -0.000000 0.334404 0.494000 -0.115911 -16.064457 305.003142 -0.000000 0.173982 0.178405 -0.357551
0.410000 6.163065 281.277597 -0.000000 0.334418 0.493989 -0.115904 -16.123987 304.808444 -0.000000 0.173962 0.178414 -0.357553
0.415000 6.059905 281.192006 -0.000000 0.334417 0.493990 -0.115914 -16.207793 304.563939 -0.000000 0.173972 0.178413 -0.357547
0.420000 6.030071 281.139236 -0.000000 0.334424 0.493982 -0.115913 -16.226914 304.299401 -0.000000 0.173953 0.178427 -0.357554
0.425000 6.001410 281.119479 -0.000000 0.334428 0.493988 -0.115913 -16.253899 304.049492 -0.000000 0.173962 0.178411 -0.357553
0.430000 6.046886 281.147711 -0.000000 0.334433 0.493980 -0.115914 -16.214685 303.849430 -0.000000 0.173959 0.178412 -0.357551
